<svg width="136" height="48" viewBox="0 0 136 48" fill="none" xmlns="http://www.w3.org/2000/svg">
<path d="M53.02 27.36C52.6333 28.6267 51.9467 29.5867 50.96 30.24C49.9733 30.88 48.7933 31.2 47.42 31.2C46.1267 31.2 45 30.9267 44.04 30.38C43.08 29.8333 42.34 29.0533 41.82 28.04C41.3133 27.0133 41.06 25.8 41.06 24.4C41.06 23 41.3133 21.7933 41.82 20.78C42.34 19.7533 43.0733 18.9667 44.02 18.42C44.98 17.8733 46.1 17.6 47.38 17.6C48.7533 17.6 49.9133 17.8867 50.86 18.46C51.82 19.0333 52.48 19.8867 52.84 21.02L50.34 22.08C50.1267 21.2933 49.7933 20.7267 49.34 20.38C48.8867 20.0333 48.2733 19.86 47.5 19.86C46.38 19.86 45.5 20.2533 44.86 21.04C44.2333 21.8267 43.92 22.9467 43.92 24.4C43.92 25.8533 44.2267 26.9733 44.84 27.76C45.4533 28.5467 46.32 28.94 47.44 28.94C49.0533 28.94 50.0667 28.16 50.48 26.6L53.02 27.36ZM64.2323 29.34C64.5123 29.34 64.739 29.3133 64.9123 29.26L64.7123 30.92C64.339 31.1067 63.9057 31.2 63.4123 31.2C62.1323 31.2 61.3657 30.7 61.1123 29.7C60.819 30.1933 60.3657 30.5667 59.7523 30.82C59.139 31.0733 58.4123 31.2 57.5723 31.2C56.599 31.2 55.839 30.98 55.2923 30.54C54.7457 30.1 54.4723 29.4667 54.4723 28.64C54.4723 27.0133 55.7723 25.96 58.3723 25.48L60.7723 25.02V24.54C60.7723 24.0067 60.619 23.5867 60.3123 23.28C60.019 22.96 59.6057 22.8 59.0723 22.8C58.459 22.8 57.959 22.9333 57.5723 23.2C57.1857 23.4667 56.919 23.9 56.7723 24.5L54.5923 23.58C54.8057 22.7133 55.2857 22.0333 56.0323 21.54C56.779 21.0467 57.7523 20.8 58.9523 20.8C60.379 20.8 61.4923 21.1133 62.2923 21.74C63.0923 22.3533 63.4923 23.2667 63.4923 24.48V28.58C63.4923 28.8467 63.5523 29.04 63.6723 29.16C63.7923 29.28 63.979 29.34 64.2323 29.34ZM58.4323 29.34C59.019 29.34 59.5523 29.2 60.0323 28.92C60.5257 28.6267 60.7723 28.2333 60.7723 27.74V26.7L58.6323 27.18C58.179 27.2867 57.839 27.4333 57.6123 27.62C57.399 27.7933 57.2923 28.04 57.2923 28.36C57.2923 28.68 57.3923 28.9267 57.5923 29.1C57.7923 29.26 58.0723 29.34 58.4323 29.34ZM72.2367 20.8C72.7034 20.8 73.0634 20.8733 73.3167 21.02L72.9767 23.42C72.6701 23.22 72.2501 23.12 71.7167 23.12C71.0634 23.12 70.4967 23.36 70.0167 23.84C69.5501 24.3067 69.3167 24.9667 69.3167 25.82V31H66.5767V21H68.9567L69.1367 22.96C69.6834 21.52 70.7167 20.8 72.2367 20.8ZM76.3942 19.56C75.2609 19.56 74.6942 19.0733 74.6942 18.1C74.6942 17.1133 75.2609 16.62 76.3942 16.62C77.5276 16.62 78.0942 17.1133 78.0942 18.1C78.0942 19.0733 77.5276 19.56 76.3942 19.56ZM77.7542 31H75.0142V21H77.7542V31ZM86.1388 25.94H83.6588V31H80.9388V17.8H86.7588C88.2654 17.8 89.4388 18.16 90.2788 18.88C91.1321 19.5867 91.5588 20.5867 91.5588 21.88C91.5588 22.8267 91.3254 23.62 90.8588 24.26C90.3921 24.9 89.7254 25.36 88.8588 25.64L92.3388 31H89.2388L86.1388 25.94ZM83.6588 23.84H86.3988C87.1988 23.84 87.7854 23.6867 88.1588 23.38C88.5454 23.06 88.7388 22.5733 88.7388 21.92C88.7388 21.2667 88.5454 20.7867 88.1588 20.48C87.7854 20.16 87.1988 20 86.3988 20H83.6588V23.84ZM103.378 25.96C103.378 26.3333 103.351 26.6933 103.298 27.04H96.2177C96.4977 28.4533 97.331 29.16 98.7177 29.16C99.291 29.16 99.7643 29.0533 100.138 28.84C100.511 28.6267 100.771 28.32 100.918 27.92L103.158 28.74C102.838 29.54 102.298 30.1533 101.538 30.58C100.791 30.9933 99.851 31.2 98.7177 31.2C97.0643 31.2 95.7843 30.7467 94.8777 29.84C93.971 28.92 93.5177 27.64 93.5177 26C93.5177 24.36 93.9577 23.0867 94.8377 22.18C95.7177 21.26 96.9577 20.8 98.5577 20.8C100.104 20.8 101.291 21.2467 102.118 22.14C102.958 23.0333 103.378 24.3067 103.378 25.96ZM98.5377 22.82C97.871 22.82 97.3377 23.0133 96.9377 23.4C96.551 23.7867 96.3043 24.36 96.1977 25.12H100.858C100.751 24.3733 100.498 23.8067 100.098 23.42C99.6977 23.02 99.1777 22.82 98.5377 22.82ZM109.558 31.2C107.332 31.2 105.785 30.56 104.918 29.28L106.518 27.64C106.785 28.2133 107.165 28.62 107.658 28.86C108.165 29.0867 108.785 29.2 109.518 29.2C110.105 29.2 110.558 29.12 110.878 28.96C111.198 28.8 111.358 28.58 111.358 28.3C111.358 28.0733 111.205 27.88 110.898 27.72C110.605 27.56 110.092 27.4067 109.358 27.26C107.825 26.9533 106.745 26.5533 106.118 26.06C105.505 25.5533 105.198 24.8733 105.198 24.02C105.198 23.46 105.372 22.9333 105.718 22.44C106.065 21.9467 106.578 21.5533 107.258 21.26C107.938 20.9533 108.752 20.8 109.698 20.8C110.818 20.8 111.725 20.9733 112.418 21.32C113.112 21.6533 113.692 22.1867 114.158 22.92L112.458 24.36C112.165 23.8267 111.798 23.4333 111.358 23.18C110.932 22.9267 110.392 22.8 109.738 22.8C109.192 22.8 108.752 22.8933 108.418 23.08C108.098 23.2667 107.938 23.4933 107.938 23.76C107.938 24.04 108.098 24.2733 108.418 24.46C108.738 24.6467 109.305 24.82 110.118 24.98C111.572 25.2733 112.598 25.66 113.198 26.14C113.812 26.6067 114.118 27.26 114.118 28.1C114.118 29.0333 113.718 29.7867 112.918 30.36C112.132 30.92 111.012 31.2 109.558 31.2ZM123.163 30.38C122.843 30.6333 122.437 30.8333 121.943 30.98C121.463 31.1267 120.957 31.2 120.423 31.2C118.197 31.2 117.083 30.1933 117.083 28.18V23.04H115.263V21H117.083V18.7L119.823 17.94V21H123.063V23.04H119.823V27.74C119.823 28.66 120.283 29.12 121.203 29.12C121.79 29.12 122.303 28.9333 122.743 28.56L123.163 30.38ZM129.478 20.8C131.091 20.8 132.344 21.26 133.238 22.18C134.144 23.1 134.598 24.3733 134.598 26C134.598 27.6267 134.144 28.9 133.238 29.82C132.344 30.74 131.091 31.2 129.478 31.2C127.864 31.2 126.604 30.74 125.698 29.82C124.804 28.9 124.358 27.6267 124.358 26C124.358 24.3733 124.804 23.1 125.698 22.18C126.604 21.26 127.864 20.8 129.478 20.8ZM129.478 22.84C128.704 22.84 128.111 23.1067 127.698 23.64C127.298 24.16 127.098 24.9467 127.098 26C127.098 27.0533 127.298 27.8467 127.698 28.38C128.111 28.9 128.704 29.16 129.478 29.16C130.251 29.16 130.838 28.9 131.238 28.38C131.651 27.8467 131.858 27.0533 131.858 26C131.858 24.9467 131.651 24.16 131.238 23.64C130.838 23.1067 130.251 22.84 129.478 22.84Z" fill="white"/>
<path d="M31 25.5C31 25.7438 30.9937 25.9859 30.981 26.2268C30.9539 26.7369 30.8988 27.2406 30.8165 27.7359C30.7375 28.2147 30.6331 28.6859 30.5047 29.1475C30.3629 29.6624 30.1909 30.1661 29.9909 30.6567C29.6993 31.374 29.3482 32.0641 28.9439 32.7216C28.6902 33.1341 28.4156 33.5336 28.1214 33.9188C27.5919 34.6119 26.9991 35.2599 26.35 35.8548C26.1444 36.043 25.9337 36.2264 25.7173 36.4034C25.4611 36.6141 25.1973 36.8165 24.9265 37.0112C24.7197 37.1591 24.509 37.3029 24.2939 37.4414C24.1484 37.5361 24.0004 37.6278 23.851 37.7172C23.5822 37.8788 23.3082 38.0321 23.0286 38.1771C22.3029 38.5553 21.5419 38.8802 20.751 39.1465C20.4803 39.2376 20.2063 39.3222 19.9286 39.3992C19.3516 39.5602 18.7601 39.6904 18.1572 39.7875C17.9477 39.8218 17.7364 39.8514 17.5245 39.8769C17.2626 39.9094 16.9994 39.9349 16.7337 39.955C16.5243 39.9704 16.313 39.9816 16.101 39.9893C15.9017 39.9964 15.7012 40 15.5 40C10.2951 40 5.68947 37.6001 2.87858 33.9189C1.28051 31.8268 0.263197 29.3203 0.0442598 26.6056C0.0151973 26.2404 0 25.8717 0 25.5C0 25.3651 0.00187695 25.2301 0.00629688 25.0964C0.0524941 23.5103 0.370729 21.9881 0.919828 20.5688C1.11909 20.0509 1.35001 19.5473 1.60879 19.0596C1.97637 18.3666 2.40214 17.7055 2.87852 17.0811C5.68947 13.3999 10.2951 11 15.5 11C17.0392 11 18.5253 11.2095 19.9286 11.6007C20.2063 11.6776 20.4803 11.7623 20.751 11.8535C20.8965 11.902 21.0414 11.9535 21.185 12.0062C21.8209 12.2411 22.4352 12.5134 23.0267 12.8217H23.0273C23.3076 12.9673 23.5822 13.1212 23.851 13.2828C23.9877 13.3645 24.1225 13.4479 24.2559 13.5337C24.4843 13.6799 24.7077 13.832 24.9265 13.9888C25.1973 14.1835 25.4611 14.3859 25.7173 14.5966C25.9337 14.7736 26.1444 14.957 26.35 15.1452C26.9991 15.74 27.5919 16.3881 28.1214 17.0812C28.4156 17.4664 28.6902 17.8659 28.9439 18.2784C29.8644 19.774 30.5071 21.4377 30.8064 23.2084C30.8912 23.7032 30.9488 24.2068 30.9772 24.7176C30.9924 24.9768 31 25.2372 31 25.5Z" fill="white"/>
<path d="M28.9439 12.8951V32.7216C28.6902 33.1341 28.4157 33.5336 28.1215 33.9189C27.5919 34.6119 26.9992 35.26 26.3501 35.8548C26.1444 36.043 25.9338 36.2265 25.7174 36.4034C25.4612 36.6141 25.1974 36.8165 24.9266 37.0112C24.7197 37.1592 24.5091 37.303 24.2939 37.4415C24.1484 37.5362 24.0004 37.6279 23.8511 37.7173C23.5822 37.8789 23.3083 38.0321 23.0286 38.1771C22.303 38.5553 21.5419 38.8802 20.7511 39.1465V11H26.9182C28.0367 11 28.9439 11.8481 28.9439 12.8951Z" fill="#F9AF6B"/>
<path d="M28.1214 12.8951V33.9189C27.5919 34.6119 26.9991 35.26 26.35 35.8548C26.1444 36.043 25.9337 36.2265 25.7174 36.4034C25.4611 36.6141 25.1973 36.8165 24.9266 37.0112C24.7197 37.1592 24.509 37.303 24.2939 37.4415C24.1484 37.5362 24.0004 37.6279 23.8511 37.7173C23.5822 37.8789 23.3083 38.0321 23.0286 38.1771C22.3029 38.5553 21.5419 38.8802 20.7511 39.1465C20.4803 39.2377 20.2063 39.3223 19.9286 39.3993V11H26.0957C27.2142 11 28.1214 11.8481 28.1214 12.8951Z" fill="#E28D40"/>
<path d="M26.3499 13.9012V35.8548C26.1443 36.043 25.9337 36.2264 25.7173 36.4034C25.4611 36.6141 25.1973 36.8165 24.9265 37.0112C24.7196 37.1591 24.509 37.3029 24.2938 37.4414C24.1483 37.5361 24.0003 37.6278 23.851 37.7172C23.5821 37.8788 23.3082 38.0321 23.0285 38.1771C22.3029 38.5553 21.5418 38.8802 20.751 39.1465C20.4802 39.2376 20.2063 39.3222 19.9285 39.3992C19.3516 39.5602 18.76 39.6904 18.1571 39.7875V12.0061H24.3242C25.4427 12.0061 26.3499 12.8542 26.3499 13.9012Z" fill="#E8DBC4"/>
<path d="M25.7173 13.9012V36.4034C25.461 36.6141 25.1972 36.8165 24.9265 37.0112C24.7196 37.1592 24.5089 37.303 24.2938 37.4415C24.1483 37.5362 24.0003 37.6279 23.851 37.7173C23.5821 37.8789 23.3082 38.0321 23.0285 38.1771C22.3028 38.5553 21.5418 38.8802 20.751 39.1465C20.4802 39.2377 20.2062 39.3223 19.9285 39.3993C19.3515 39.5602 18.76 39.6905 18.1571 39.7875C17.9476 39.8219 17.7363 39.8514 17.5244 39.8769V12.0061H23.6915C24.81 12.0061 25.7173 12.8542 25.7173 13.9012Z" fill="#D6C8B0"/>
<path d="M24.9266 13.9012V37.0112C24.7197 37.1592 24.5091 37.303 24.2939 37.4415C24.1485 37.5362 24.0004 37.6279 23.8511 37.7173C23.5822 37.8789 23.3083 38.0321 23.0286 38.1771C22.303 38.5553 21.5419 38.8802 20.7511 39.1465C20.4803 39.2377 20.2064 39.3223 19.9286 39.3993C19.3517 39.5602 18.7601 39.6905 18.1572 39.7875C17.9478 39.8219 17.7365 39.8514 17.5246 39.8769C17.2626 39.9095 16.9994 39.9349 16.7338 39.955V12.0061H22.9009C23.1812 12.0061 23.4481 12.0593 23.6911 12.1552C24.4173 12.4435 24.9266 13.1164 24.9266 13.9012Z" fill="#E8DBC4"/>
<path d="M24.2939 13.9012V37.4415C24.1484 37.5362 24.0004 37.6279 23.8511 37.7173C23.5822 37.8789 23.3083 38.0321 23.0286 38.1771C22.303 38.5553 21.5419 38.8802 20.7511 39.1465C20.4803 39.2377 20.2063 39.3223 19.9286 39.3993C19.3517 39.5602 18.7601 39.6905 18.1572 39.7875C17.9478 39.8219 17.7364 39.8514 17.5245 39.8769C17.2626 39.9095 16.9994 39.9349 16.7337 39.955C16.5243 39.9704 16.313 39.9816 16.1011 39.9894V12.0061H22.2682C22.4637 12.0061 22.6535 12.0322 22.8325 12.0807C23.2336 12.189 23.5841 12.411 23.841 12.7063C23.841 12.7069 23.841 12.7069 23.841 12.7069V12.7074C24.0459 12.943 24.1908 13.2241 24.256 13.5336C24.2806 13.6526 24.2939 13.7757 24.2939 13.9012Z" fill="#D6C8B0"/>
<path d="M23.851 12.8951V37.7173C23.5821 37.8789 23.3082 38.0322 23.0285 38.1772C22.3029 38.5554 21.5418 38.8803 20.751 39.1466C20.4802 39.2377 20.2063 39.3224 19.9285 39.3993C19.3516 39.5603 18.76 39.6905 18.1571 39.7876C17.9477 39.8219 17.7364 39.8515 17.5245 39.877C17.2625 39.9095 16.9993 39.935 16.7337 39.9551C16.5242 39.9705 16.3129 39.9817 16.101 39.9894V40H15.5C10.2951 40 5.68943 37.6001 2.87854 33.9189V12.8951C2.87854 11.8481 3.78511 11 4.90365 11H21.8252C21.8511 11 21.8765 11.0006 21.9024 11.0012C21.9252 11.0024 21.9474 11.0036 21.9695 11.0048C21.9866 11.0059 22.0043 11.0071 22.0214 11.0089C22.1935 11.0243 22.3593 11.0598 22.5155 11.1131C22.5333 11.1189 22.5509 11.1249 22.568 11.1314C22.6148 11.1486 22.6604 11.1675 22.7047 11.1877C22.7249 11.1965 22.7452 11.206 22.7654 11.2161C22.7888 11.2274 22.8116 11.2392 22.8337 11.251C22.8502 11.2604 22.8666 11.2693 22.883 11.2788C22.9014 11.2894 22.9191 11.3001 22.9368 11.3107C22.9944 11.3456 23.05 11.3841 23.1032 11.425C23.114 11.4327 23.1247 11.4409 23.1348 11.4498C23.1405 11.4534 23.1456 11.4581 23.1506 11.4622C23.1601 11.4693 23.1689 11.477 23.1778 11.4847C23.2657 11.5575 23.346 11.6386 23.4188 11.725C23.4271 11.7351 23.4353 11.7451 23.4441 11.7552C23.4808 11.8008 23.515 11.8481 23.5479 11.8966C23.558 11.9126 23.5681 11.9286 23.5783 11.9445C23.5808 11.9487 23.5834 11.9522 23.5853 11.9564C23.596 11.973 23.6055 11.9895 23.615 12.0061C23.6277 12.028 23.6397 12.0505 23.6511 12.073C23.665 12.1002 23.6783 12.1281 23.6909 12.1552C23.701 12.1772 23.7099 12.1985 23.7188 12.2203C23.7263 12.2375 23.7327 12.2552 23.739 12.2724C23.7498 12.3009 23.7592 12.3292 23.7687 12.3582C23.7744 12.3766 23.7801 12.3943 23.7845 12.4127C23.8117 12.5079 23.8307 12.6062 23.8408 12.7062V12.7074C23.8427 12.7228 23.844 12.7381 23.8453 12.7535C23.8491 12.8004 23.851 12.8477 23.851 12.8951Z" fill="#F4A14E"/>
<path d="M23.8511 12.8951V37.7173C23.5822 37.8789 23.3082 38.0322 23.0286 38.1772V12.8951C23.0286 12.8708 23.028 12.846 23.0273 12.8217H23.0267C23.0166 12.5571 22.9476 12.3068 22.8325 12.0807C22.8198 12.0558 22.8066 12.031 22.7926 12.0061C22.4522 11.4078 21.7785 11 21.0028 11H21.8253C21.8512 11 21.8765 11.0006 21.9025 11.0012C21.9252 11.0024 21.9474 11.0036 21.9696 11.0048C21.9866 11.0059 22.0044 11.0071 22.0214 11.0089C22.1935 11.0243 22.3593 11.0598 22.5156 11.1131C22.5333 11.1189 22.551 11.1249 22.5681 11.1314C22.6149 11.1486 22.6605 11.1675 22.7047 11.1877C22.7249 11.1965 22.7452 11.206 22.7654 11.2161C22.7889 11.2274 22.8116 11.2392 22.8337 11.251C22.8502 11.2604 22.8666 11.2693 22.8831 11.2788C22.9014 11.2894 22.9192 11.3001 22.9369 11.3107C22.9944 11.3456 23.0501 11.3841 23.1032 11.425C23.114 11.4327 23.1247 11.4409 23.1348 11.4498C23.1405 11.4534 23.1456 11.4581 23.1506 11.4622C23.1602 11.4693 23.169 11.477 23.1778 11.4847C23.2657 11.5575 23.3461 11.6386 23.4189 11.725C23.4271 11.7351 23.4353 11.7451 23.4442 11.7552C23.4809 11.8008 23.515 11.8481 23.548 11.8966C23.5581 11.9126 23.5682 11.9286 23.5784 11.9445C23.5809 11.9487 23.5834 11.9522 23.5853 11.9564C23.5961 11.973 23.6055 11.9895 23.615 12.0061C23.6277 12.028 23.6397 12.0505 23.6511 12.073C23.6651 12.1002 23.6783 12.1281 23.691 12.1552C23.7011 12.1772 23.7099 12.1985 23.7188 12.2203C23.7264 12.2375 23.7327 12.2552 23.739 12.2724C23.7498 12.3009 23.7593 12.3292 23.7688 12.3582C23.7745 12.3766 23.7802 12.3943 23.7846 12.4127C23.8118 12.5079 23.8308 12.6062 23.8409 12.7062C23.8409 12.7068 23.8409 12.7068 23.8409 12.7068C23.8415 12.7074 23.8409 12.7074 23.8409 12.7074C23.8428 12.7228 23.844 12.7381 23.8453 12.7535C23.8491 12.8004 23.8511 12.8477 23.8511 12.8951Z" fill="#F9AF6B"/>
<path d="M12.653 11V17.6358C12.653 18.0743 12.1149 18.3218 11.7437 18.0541L10.4672 17.1337C10.264 16.9873 9.98092 16.9873 9.77778 17.1337L8.50127 18.0541C8.13006 18.3218 7.59192 18.0742 7.59192 17.6358V11H12.653Z" fill="#FF525D"/>
<path d="M6.9253 23.7891C6.71061 23.7891 6.52301 23.7469 6.36249 23.6624C6.20398 23.5779 6.08158 23.4588 5.9953 23.3048C5.91103 23.1509 5.8689 22.9726 5.8689 22.7699C5.8689 22.5672 5.91103 22.3889 5.9953 22.2349C6.08158 22.081 6.20398 21.9628 6.36249 21.8802C6.52301 21.7957 6.71061 21.7535 6.9253 21.7535C7.06576 21.7535 7.20019 21.7741 7.32861 21.8154C7.45702 21.8548 7.56236 21.9102 7.64462 21.9815L7.49414 22.2941C7.40184 22.2284 7.30954 22.1805 7.21725 22.1505C7.12695 22.1204 7.03265 22.1054 6.93433 22.1054C6.74573 22.1054 6.60026 22.1617 6.49793 22.2744C6.3976 22.387 6.34744 22.5522 6.34744 22.7699C6.34744 22.9876 6.3976 23.1537 6.49793 23.2682C6.60026 23.3809 6.74573 23.4372 6.93433 23.4372C7.03265 23.4372 7.12695 23.4222 7.21725 23.3921C7.30954 23.3621 7.40184 23.3142 7.49414 23.2485L7.64462 23.5611C7.56236 23.6324 7.45702 23.6887 7.32861 23.73C7.20019 23.7694 7.06576 23.7891 6.9253 23.7891Z" fill="#A55A16"/>
<path d="M9.5577 23.3245H8.57052L8.36887 23.7638H7.89634L8.87149 21.7788H9.2477L10.2228 23.7638H9.75935L9.5577 23.3245ZM9.40421 22.9923L9.06411 22.249L8.72401 22.9923H9.40421Z" fill="#A55A16"/>
<path d="M10.8212 22.1364H10.156V21.7788H11.9558V22.1364H11.2907V23.7638H10.8212V22.1364Z" fill="#A55A16"/>
<path d="M13.5507 23.3245H12.5635L12.3618 23.7638H11.8893L12.8644 21.7788H13.2407L14.2158 23.7638H13.7523L13.5507 23.3245ZM13.3972 22.9923L13.0571 22.249L12.717 22.9923H13.3972Z" fill="#A55A16"/>
<path d="M14.594 21.7788H15.0635V23.4062H16.0115V23.7638H14.594V21.7788Z" fill="#A55A16"/>
<path d="M17.3451 23.7891C17.1345 23.7891 16.9509 23.7478 16.7944 23.6652C16.6399 23.5808 16.5205 23.4625 16.4362 23.3105C16.3519 23.1566 16.3098 22.9764 16.3098 22.7699C16.3098 22.5634 16.3519 22.3842 16.4362 22.2321C16.5205 22.0782 16.6399 21.96 16.7944 21.8774C16.9509 21.7948 17.1345 21.7535 17.3451 21.7535C17.5558 21.7535 17.7384 21.7948 17.8929 21.8774C18.0494 21.96 18.1698 22.0782 18.2541 22.2321C18.3383 22.3842 18.3805 22.5634 18.3805 22.7699C18.3805 22.9764 18.3383 23.1566 18.2541 23.3105C18.1698 23.4625 18.0494 23.5808 17.8929 23.6652C17.7384 23.7478 17.5558 23.7891 17.3451 23.7891ZM17.3451 23.4484C17.5217 23.4484 17.6602 23.3902 17.7605 23.2739C17.8628 23.1575 17.914 22.9895 17.914 22.7699C17.914 22.5503 17.8638 22.3832 17.7635 22.2687C17.6632 22.1523 17.5237 22.0942 17.3451 22.0942C17.1666 22.0942 17.0271 22.1523 16.9268 22.2687C16.8285 22.3832 16.7793 22.5503 16.7793 22.7699C16.7793 22.9895 16.8295 23.1575 16.9298 23.2739C17.0301 23.3902 17.1686 23.4484 17.3451 23.4484Z" fill="#A55A16"/>
<path d="M20.7635 22.6685V23.6399C20.6612 23.6868 20.5408 23.7234 20.4023 23.7497C20.2639 23.776 20.1214 23.7891 19.975 23.7891C19.7502 23.7891 19.5556 23.7488 19.3911 23.668C19.2265 23.5855 19.1001 23.4681 19.0118 23.3161C18.9236 23.1622 18.8794 22.9801 18.8794 22.7699C18.8794 22.5634 18.9226 22.3842 19.0088 22.2321C19.0971 22.0782 19.2225 21.96 19.3851 21.8774C19.5476 21.7948 19.7372 21.7535 19.9539 21.7535C20.1064 21.7535 20.2478 21.7732 20.3783 21.8126C20.5107 21.852 20.62 21.9065 20.7063 21.9759L20.5588 22.2884C20.4605 22.2227 20.3642 22.1758 20.2699 22.1477C20.1776 22.1176 20.0773 22.1026 19.9689 22.1026C19.5596 22.1026 19.355 22.325 19.355 22.7699C19.355 22.9989 19.4081 23.1697 19.5145 23.2823C19.6208 23.3949 19.7813 23.4512 19.996 23.4512C20.1124 23.4512 20.2278 23.4372 20.3421 23.409V22.9726H19.9268V22.6685H20.7635Z" fill="#A55A16"/>
</svg>
