<svg width="100" height="25" viewBox="0 0 100 25" fill="none" xmlns="http://www.w3.org/2000/svg">
<path d="M3.63 23.98C3.01 23.76 2.41 23.44 1.83 23.02C1.27 22.6 0.859995 22.07 0.599995 21.43C0.279995 20.53 0.119995 19.47 0.119995 18.25C0.119995 17.07 0.189995 16.07 0.329995 15.25C0.469995 14.41 0.709995 13.56 1.05 12.7L1.32 12.07C1.64 11.25 1.87 10.71 2.01 10.45C2.35 9.67 2.95 8.66 3.81 7.42C4.61 6.22 5.24 5.33 5.7 4.75C6.18 4.15 6.67 3.64 7.17 3.22C7.67 2.78 8.4 2.23 9.36 1.57C9.94 1.15 10.65 0.940002 11.49 0.940002C12.15 0.940002 12.75 1.1 13.29 1.42C13.85 1.74 14.27 2.24 14.55 2.92C14.75 3.26 14.85 3.73 14.85 4.33C14.85 5.29 14.62 6.33 14.16 7.45C13.7 8.57 13.15 9.42 12.51 10C12.37 10.14 12.18 10.21 11.94 10.21C11.7 10.21 11.44 10.14 11.16 10C10.88 9.86 10.63 9.69 10.41 9.49C10.23 9.15 10.13 8.95 10.11 8.89C10.09 8.83 10.13 8.79 10.23 8.77C10.41 8.55 10.67 8.13 11.01 7.51C11.37 6.87 11.61 6.37 11.73 6.01L11.91 5.17C12.03 4.65 12.09 4.31 12.09 4.15C12.09 3.97 12.02 3.81 11.88 3.67C11.82 3.61 11.74 3.58 11.64 3.58C11.48 3.58 11.2 3.68 10.8 3.88C10.34 4.08 9.79 4.49 9.15 5.11C8.53 5.71 7.91 6.43 7.29 7.27C6.37 8.47 5.66 9.46 5.16 10.24C4.68 11.02 4.31 11.81 4.05 12.61L3.72 13.39C3.74 13.47 3.71 13.67 3.63 13.99C3.55 14.31 3.46 14.57 3.36 14.77C3.08 15.93 2.94 16.98 2.94 17.92C2.94 18.66 3.01 19.3 3.15 19.84C3.31 20.38 3.53 20.78 3.81 21.04C3.97 21.18 4.2 21.25 4.5 21.25C4.82 21.25 5.18 21.18 5.58 21.04C6 20.88 6.44 20.7 6.9 20.5C7.36 20.3 7.68 20.16 7.86 20.08C8.32 19.9 8.75 19.69 9.15 19.45C9.57 19.21 9.88 18.99 10.08 18.79C10.6 18.41 11.02 18.22 11.34 18.22C11.6 18.14 11.8 18.22 11.94 18.46C12.1 18.7 12.18 19.03 12.18 19.45C12.18 19.73 11.99 20.07 11.61 20.47C11.23 20.85 10.78 21.19 10.26 21.49C10.04 21.71 9.55 21.97 8.79 22.27C8.15 22.73 7.4 23.14 6.54 23.5C5.7 23.86 4.93 24.04 4.23 24.04C4.07 24.04 3.87 24.02 3.63 23.98Z" fill="#FFD06C"/>
<path d="M15.0169 21.37C14.9569 21.25 14.7869 21.09 14.5069 20.89C14.2269 20.69 14.0869 20.57 14.0869 20.53C14.0869 20.45 14.0369 20.34 13.9369 20.2C13.8569 20.04 13.7769 19.9 13.6969 19.78C13.5369 19.62 13.6469 19.1 14.0269 18.22C14.4069 17.34 14.9169 16.3 15.5569 15.1C15.6769 14.98 15.8269 14.77 16.0069 14.47C16.2069 14.17 16.3369 14 16.3969 13.96C16.3969 13.88 16.4269 13.81 16.4869 13.75C16.5469 13.67 16.6169 13.63 16.6969 13.63L16.9369 13.15C17.0169 12.97 17.4069 12.54 18.1069 11.86C18.8069 11.18 19.3569 10.72 19.7569 10.48C20.1369 10.22 20.5469 10.09 20.9869 10.09C21.4669 10.09 21.8769 10.23 22.2169 10.51L23.0269 11.2C23.6269 11.7 23.9669 11.99 24.0469 12.07L25.1569 13.06L24.6469 14.56C24.4669 15.1 24.3769 15.61 24.3769 16.09C24.3769 16.85 24.5869 17.56 25.0069 18.22C25.1069 18.44 25.2369 18.61 25.3969 18.73C25.5769 18.85 25.8069 18.93 26.0869 18.97C26.5269 19.05 26.7469 19.27 26.7469 19.63C26.7469 20.07 26.6669 20.4 26.5069 20.62C26.3469 20.84 26.1569 20.98 25.9369 21.04C25.6169 21.08 25.3969 21.1 25.2769 21.1C24.6969 21.1 24.1669 20.95 23.6869 20.65C23.2069 20.35 22.7869 19.84 22.4269 19.12C22.3469 19 22.2369 18.78 22.0969 18.46C21.9769 18.14 21.9069 17.92 21.8869 17.8C21.7469 18 21.5169 18.26 21.1969 18.58C19.1369 20.66 17.4669 21.7 16.1869 21.7C15.7469 21.7 15.3569 21.59 15.0169 21.37ZM16.6669 18.88C16.9869 18.92 17.6069 18.56 18.5269 17.8C18.6269 17.72 18.7369 17.63 18.8569 17.53C18.9769 17.41 19.1069 17.29 19.2469 17.17C19.8069 16.71 20.2369 16.33 20.5369 16.03C20.8569 15.71 21.1769 15.33 21.4969 14.89L22.1569 13.81C21.9569 13.37 21.7769 13.08 21.6169 12.94C21.4569 12.78 21.2969 12.7 21.1369 12.7C20.7369 12.7 20.2369 13.06 19.6369 13.78C19.0369 14.48 18.3169 15.55 17.4769 16.99C17.2569 17.35 17.0769 17.73 16.9369 18.13C16.7969 18.51 16.7069 18.76 16.6669 18.88Z" fill="#FFD06C"/>
<path d="M28.2555 21.19C27.9755 20.97 27.7555 20.76 27.5955 20.56C27.4355 20.36 27.3855 20.08 27.4455 19.72C27.5055 19.04 27.6555 18.25 27.8955 17.35L28.0455 16.75C28.1055 16.21 28.4155 15.15 28.9755 13.57C29.5555 11.97 30.0355 10.89 30.4155 10.33C30.6155 10.13 30.9555 10.03 31.4355 10.03C31.8355 10.03 32.1155 10.11 32.2755 10.27C32.4355 10.39 32.5155 10.59 32.5155 10.87C32.5155 11.33 32.2255 12.14 31.6455 13.3L31.3455 13.93C31.2055 14.19 31.0855 14.43 30.9855 14.65C30.9055 14.87 30.9155 14.97 31.0155 14.95C31.2355 14.57 31.7655 14.05 32.6055 13.39C33.4655 12.73 34.0555 12.32 34.3755 12.16C34.5155 12.08 34.6955 12 34.9155 11.92C35.1355 11.84 35.2855 11.78 35.3655 11.74C35.7255 11.56 36.1355 11.47 36.5955 11.47C36.9155 11.47 37.1855 11.52 37.4055 11.62C37.6455 11.7 37.8055 11.83 37.8855 12.01C37.9055 12.15 37.9555 12.26 38.0355 12.34C38.1355 12.42 38.2055 12.47 38.2455 12.49C38.3055 12.49 38.3455 12.52 38.3655 12.58C38.3855 12.62 38.3955 12.65 38.3955 12.67C38.3955 12.83 38.2555 13.04 37.9755 13.3C37.6955 13.54 37.4055 13.67 37.1055 13.69C36.8855 13.71 36.6555 13.76 36.4155 13.84C36.1755 13.92 35.9355 14.02 35.6955 14.14L34.9155 14.59C34.2355 14.93 33.6555 15.27 33.1755 15.61C32.7155 15.93 32.2455 16.35 31.7655 16.87C31.6655 16.97 31.5155 17.11 31.3155 17.29C31.1355 17.47 30.9755 17.68 30.8355 17.92C30.6955 18.06 30.5455 18.43 30.3855 19.03C30.2455 19.61 30.1755 19.97 30.1755 20.11C30.1555 20.17 30.1155 20.29 30.0555 20.47C29.9955 20.65 29.9055 20.81 29.7855 20.95C29.6055 21.17 29.4555 21.33 29.3355 21.43C29.2155 21.53 29.0855 21.58 28.9455 21.58C28.7455 21.58 28.5155 21.45 28.2555 21.19Z" fill="#FFD06C"/>
<path d="M43.3861 9.52C43.3261 9.58 43.2661 9.61 43.2061 9.61C43.1261 9.61 42.9961 9.55 42.8161 9.43C42.6161 9.41 42.3461 9.24 42.0061 8.92C41.6861 8.6 41.5261 8.39 41.5261 8.29C41.5061 8.05 41.5261 7.71 41.5861 7.27C41.6461 6.81 41.7561 6.4 41.9161 6.04C42.0961 5.68 42.3261 5.49 42.6061 5.47C42.7461 5.49 42.9361 5.54 43.1761 5.62C43.4161 5.68 43.6861 5.77 43.9861 5.89C44.3661 6.65 44.5561 7.3 44.5561 7.84C44.5561 8.64 44.1661 9.2 43.3861 9.52ZM40.6261 21.97C40.1461 21.97 39.7261 21.72 39.3661 21.22C39.0261 20.72 38.8161 20.1 38.7361 19.36C38.8161 18.62 38.8761 18.08 38.9161 17.74C39.1361 16.76 39.4061 15.61 39.7261 14.29C40.0661 12.95 40.2661 12.21 40.3261 12.07C40.4261 11.89 40.5861 11.8 40.8061 11.8C41.0261 11.8 41.2661 11.89 41.5261 12.07C41.8061 12.23 42.0361 12.46 42.2161 12.76C42.3761 12.98 42.4561 13.23 42.4561 13.51C42.4561 13.93 42.2561 14.81 41.8561 16.15C41.5761 17.15 41.3961 17.86 41.3161 18.28C41.2361 18.7 41.2061 19.15 41.2261 19.63C41.1461 20.53 41.0661 21.15 40.9861 21.49C40.9061 21.83 40.7861 21.99 40.6261 21.97Z" fill="#FFD06C"/>
<path d="M45.3448 23.05C45.3448 23.05 45.0948 22.86 44.5948 22.48C44.0948 22.12 43.8448 21.63 43.8448 21.01C43.9048 20.59 44.0748 19.92 44.3548 19C44.6348 18.06 44.9548 17.1 45.3148 16.12L45.3748 15.76C45.4748 15.24 45.5648 14.9 45.6448 14.74C45.7448 14.58 45.8548 14.47 45.9748 14.41C46.0948 14.35 46.1548 14.17 46.1548 13.87C46.1548 13.69 46.1348 13.56 46.0948 13.48C46.0948 13.22 46.3348 12.4 46.8148 11.02C47.2948 9.64 47.9748 7.95 48.8548 5.95L48.9748 5.74C49.0548 5.64 49.0948 5.55 49.0948 5.47C48.8748 5.25 48.6748 5.03 48.4948 4.81C48.3348 4.59 48.2548 4.32 48.2548 4C48.2548 3.82 48.3348 3.63 48.4948 3.43C48.6548 3.23 48.9448 2.96 49.3648 2.62C50.2448 2.14 50.9648 1.89 51.5248 1.87C51.6248 1.87 51.7748 1.89 51.9748 1.93C52.6948 1.97 53.2048 2.04 53.5048 2.14C53.8048 2.22 54.0548 2.32 54.2548 2.44C54.4348 2.58 54.6348 2.65 54.8548 2.65C55.3348 2.71 55.9348 2.93 56.6548 3.31C57.3948 3.69 57.8248 3.96 57.9448 4.12C58.3248 4.44 58.6648 4.9 58.9648 5.5C59.2848 6.08 59.4748 6.72 59.5348 7.42C59.5348 8.22 59.4748 8.84 59.3548 9.28C59.2548 9.7 58.9848 10.22 58.5448 10.84C57.2648 12.98 55.3848 14.77 52.9048 16.21L52.6948 16.6C52.6948 16.86 52.9548 17.25 53.4748 17.77C53.9948 18.27 54.5648 18.76 55.1848 19.24C55.8248 19.72 56.2248 19.99 56.3848 20.05H56.4448C56.5448 20.05 56.6448 20.04 56.7448 20.02C56.8448 20 56.9448 19.99 57.0448 19.99C57.1648 19.99 57.2748 20.07 57.3748 20.23C57.4948 20.37 57.5548 20.6 57.5548 20.92C57.5348 21.14 57.4648 21.38 57.3448 21.64C57.2448 21.88 57.1648 22.02 57.1048 22.06C57.0648 22.06 56.9348 22.18 56.7148 22.42C56.4948 22.68 56.3048 22.81 56.1448 22.81C55.9248 22.81 55.6848 22.72 55.4248 22.54C54.7448 22.32 54.0748 21.93 53.4148 21.37C52.7748 20.79 52.0848 20.04 51.3448 19.12L50.6248 18.4C50.4248 18.16 50.2748 18.01 50.1748 17.95C50.0748 17.87 49.9648 17.83 49.8448 17.83C49.7648 17.83 49.6448 17.85 49.4848 17.89C49.3448 17.91 49.2148 17.92 49.0948 17.92C48.9148 17.92 48.7048 17.81 48.4648 17.59C48.2248 17.35 48.0648 17.23 47.9848 17.23C47.9248 17.23 47.8448 17.36 47.7448 17.62C47.6448 17.86 47.5848 18.02 47.5648 18.1C47.2848 18.84 47.0848 19.31 46.9648 19.51V19.78C46.9448 19.96 46.8748 20.31 46.7548 20.83C46.6548 21.35 46.5148 21.85 46.3348 22.33C46.1548 22.81 45.9748 23.05 45.7948 23.05C45.7548 23.03 45.7048 22.99 45.6448 22.93C45.6048 22.89 45.5648 22.87 45.5248 22.87C45.4848 22.87 45.4548 22.9 45.4348 22.96C45.4148 23.04 45.3948 23.08 45.3748 23.08L45.3448 23.05ZM50.2348 14.92C50.6748 14.54 50.9048 14.34 50.9248 14.32L51.5848 14.08C53.2048 13.28 54.5048 12.09 55.4848 10.51C55.6048 10.43 55.7548 10.24 55.9348 9.94C56.1348 9.62 56.2648 9.44 56.3248 9.4C56.3848 9.32 56.4648 9.22 56.5648 9.1C56.6648 8.96 56.7148 8.85 56.7148 8.77C56.7148 8.69 56.6848 8.59 56.6248 8.47C56.6248 8.35 56.6748 8.12 56.7748 7.78C56.8748 7.52 56.9248 7.3 56.9248 7.12C56.9248 6.82 56.6948 6.53 56.2348 6.25C55.7748 5.97 55.0648 5.61 54.1048 5.17C53.9448 5.17 53.7448 5.14 53.5048 5.08C53.2848 5 53.1248 4.95 53.0248 4.93C52.6648 4.81 52.4548 4.75 52.3948 4.75C52.2948 4.75 52.2048 4.84 52.1248 5.02C52.0448 5.2 51.9448 5.49 51.8248 5.89C51.7048 6.31 51.5848 6.64 51.4648 6.88C51.3648 7.12 51.2448 7.27 51.1048 7.33C51.0648 7.53 50.8448 8.18 50.4448 9.28C49.3848 12.46 48.8548 14.13 48.8548 14.29C48.8548 14.33 48.9248 14.41 49.0648 14.53C49.2048 14.63 49.3148 14.68 49.3948 14.68C49.4748 14.68 49.5148 14.65 49.5148 14.59C49.5348 14.59 49.5748 14.61 49.6348 14.65C49.7148 14.67 49.7848 14.7 49.8448 14.74L50.2348 14.92Z" fill="#FFD06C"/>
<path d="M61.3362 21.73C60.6762 21.47 60.1862 21.07 59.8662 20.53C59.5662 19.97 59.4162 19.25 59.4162 18.37C59.4162 18.17 59.4362 17.81 59.4762 17.29C59.4962 17.13 59.5062 16.94 59.5062 16.72C59.5062 16.38 59.4662 16.13 59.3862 15.97C59.3062 15.79 59.1662 15.61 58.9662 15.43C58.9062 15.37 58.7662 15.24 58.5462 15.04C58.3262 14.84 58.2262 14.69 58.2462 14.59V14.5C58.2462 14.36 58.2762 14.21 58.3362 14.05C58.4162 13.87 58.4862 13.76 58.5462 13.72C58.6062 13.7 58.7262 13.64 58.9062 13.54C59.0862 13.44 59.2262 13.41 59.3262 13.45C59.4062 13.45 59.5262 13.5 59.6862 13.6C59.8662 13.7 59.9562 13.79 59.9562 13.87C60.0762 14.11 60.3862 13.72 60.8862 12.7C61.1662 12.28 61.5462 11.87 62.0262 11.47C62.5062 11.05 62.9462 10.73 63.3462 10.51C63.4862 10.45 63.7962 10.37 64.2762 10.27C64.7762 10.15 65.1662 10.09 65.4462 10.09C65.7662 10.09 66.1362 10.22 66.5562 10.48C66.9962 10.74 67.3562 11.02 67.6362 11.32C68.0562 11.62 68.2662 12.19 68.2662 13.03C68.2662 13.53 68.1862 13.96 68.0262 14.32C67.9462 14.62 67.5462 15.08 66.8262 15.7C66.1262 16.3 65.5562 16.69 65.1162 16.87C64.6762 16.97 64.1862 17.02 63.6462 17.02C63.1062 17.02 62.7362 16.97 62.5362 16.87C62.3962 16.79 62.2762 16.83 62.1762 16.99C62.0962 17.13 62.0262 17.46 61.9662 17.98L61.9362 18.28C61.9362 18.5 61.9862 18.71 62.0862 18.91C62.2262 19.15 62.3562 19.32 62.4762 19.42C62.5962 19.52 62.7762 19.57 63.0162 19.57L63.2862 19.54C63.5062 19.52 63.7362 19.41 63.9762 19.21C64.2362 19.01 64.5362 18.74 64.8762 18.4C65.2362 18.06 65.4462 17.86 65.5062 17.8C65.6062 17.6 65.8762 17.5 66.3162 17.5C66.4962 17.5 66.7262 17.53 67.0062 17.59C67.2062 17.75 67.3062 17.95 67.3062 18.19C67.3062 18.53 67.1462 18.99 66.8262 19.57C66.7262 19.77 66.4162 20.11 65.8962 20.59C65.3962 21.07 64.9962 21.4 64.6962 21.58C64.1562 21.88 63.5562 22.03 62.8962 22.03C62.3962 22.03 61.8762 21.93 61.3362 21.73ZM63.5562 14.98C64.0362 14.86 64.4062 14.72 64.6662 14.56C64.9462 14.38 65.2662 14.04 65.6262 13.54C65.7862 13.06 65.8162 12.77 65.7162 12.67C65.5962 12.55 65.4562 12.49 65.2962 12.49C65.0962 12.49 64.8562 12.6 64.5762 12.82C64.3762 12.88 64.0962 13.07 63.7362 13.39C63.3962 13.69 63.1062 13.99 62.8662 14.29C62.6262 14.57 62.5562 14.74 62.6562 14.8C62.6162 14.86 62.7162 14.91 62.9562 14.95C63.1962 14.97 63.3962 14.98 63.5562 14.98Z" fill="#FFD06C"/>
<path d="M72.1657 22.18C71.5457 22.18 70.9657 22.04 70.4257 21.76C69.8857 21.48 69.4557 21.13 69.1357 20.71C68.8157 20.27 68.6557 19.84 68.6557 19.42C68.6557 19.08 68.7957 18.91 69.0757 18.91C69.2557 18.95 69.4657 19.06 69.7057 19.24C70.0057 19.42 70.2557 19.56 70.4557 19.66C70.6757 19.76 70.8957 19.81 71.1157 19.81C71.4557 19.81 71.7457 19.76 71.9857 19.66C72.2457 19.54 72.3957 19.37 72.4357 19.15C72.4357 19.07 72.3957 18.9 72.3157 18.64C72.2357 18.36 72.1357 18.11 72.0157 17.89C71.5757 17.23 71.2757 16.59 71.1157 15.97C70.9757 15.33 70.8857 14.59 70.8457 13.75C70.8457 13.29 71.1757 12.74 71.8357 12.1C72.5157 11.46 73.2957 10.89 74.1757 10.39C75.0757 9.89 75.8057 9.61 76.3657 9.55C77.4657 9.55 78.1257 9.64 78.3457 9.82C78.6257 10.04 78.8857 10.4 79.1257 10.9C79.3657 11.4 79.4857 11.82 79.4857 12.16C79.4857 12.3 79.4157 12.48 79.2757 12.7C79.1557 12.9 79.0757 13.03 79.0357 13.09L78.7657 13.51L78.5557 13.96C78.5157 14.06 78.4457 14.21 78.3457 14.41C78.2657 14.61 78.1857 14.73 78.1057 14.77C78.0457 14.81 77.9457 14.82 77.8057 14.8C77.4657 14.8 77.1557 14.65 76.8757 14.35C76.5957 14.05 76.4557 13.72 76.4557 13.36C76.4557 13.1 76.5457 12.84 76.7257 12.58C76.9057 12.32 76.9957 12.17 76.9957 12.13C76.9957 12.05 76.9057 12.01 76.7257 12.01C76.4657 12.01 76.0657 12.14 75.5257 12.4C74.9857 12.66 74.5057 13.01 74.0857 13.45C73.6657 13.87 73.4557 14.34 73.4557 14.86C73.4557 15.14 73.5057 15.47 73.6057 15.85C73.7257 16.21 73.8557 16.51 73.9957 16.75C74.1557 16.91 74.3857 17.39 74.6857 18.19C75.0057 18.97 75.1657 19.59 75.1657 20.05C75.1657 20.75 74.8957 21.28 74.3557 21.64C73.8357 22 73.1057 22.18 72.1657 22.18Z" fill="#FFD06C"/>
<path d="M82.624 23.8C81.844 23.78 81.284 23.59 80.944 23.23C80.624 22.89 80.464 22.4 80.464 21.76C80.464 21.6 80.484 21.34 80.524 20.98C80.604 20.7 80.664 20.42 80.704 20.14C80.804 19.7 80.904 19.44 81.004 19.36C81.024 19.34 81.044 19.3 81.064 19.24C81.084 19.18 81.064 19.13 81.004 19.09C81.004 18.83 81.094 18.47 81.274 18.01C81.314 17.87 81.364 17.73 81.424 17.59C81.484 17.45 81.524 17.36 81.544 17.32C81.504 17.28 81.484 17.22 81.484 17.14C81.484 17.04 81.534 16.94 81.634 16.84C81.754 16.74 81.834 16.65 81.874 16.57C81.934 16.49 81.934 16.41 81.874 16.33C81.834 16.23 82.024 15.78 82.444 14.98C82.704 14.46 82.844 14.17 82.864 14.11C82.844 14.05 82.984 13.68 83.284 13C83.604 12.32 83.854 11.81 84.034 11.47C84.214 11.37 84.144 11.3 83.824 11.26C83.504 11.22 83.114 11.21 82.654 11.23C81.994 11.21 81.484 11.18 81.124 11.14C80.764 11.08 80.474 10.99 80.254 10.87C80.114 10.73 80.044 10.55 80.044 10.33C80.044 10.07 80.134 9.83 80.314 9.61C80.514 9.39 80.754 9.27 81.034 9.25C81.554 9.23 82.354 9.16 83.434 9.04L84.964 8.92L85.054 8.41C85.154 8.23 85.244 8.08 85.324 7.96C85.424 7.82 85.484 7.7 85.504 7.6C85.544 7.5 85.574 7.35 85.594 7.15C85.654 7.07 85.754 6.87 85.894 6.55C86.054 6.23 86.154 5.92 86.194 5.62C86.414 5.24 86.614 4.88 86.794 4.54C86.994 4.18 87.114 3.97 87.154 3.91C87.514 3.37 87.914 3.1 88.354 3.1C88.594 3.1 88.844 3.18 89.104 3.34C89.364 3.52 89.564 3.68 89.704 3.82C89.844 3.96 89.914 4.15 89.914 4.39C89.914 4.57 89.824 4.83 89.644 5.17C89.564 5.33 89.444 5.65 89.284 6.13C89.144 6.31 88.994 6.56 88.834 6.88C88.674 7.18 88.564 7.47 88.504 7.75C88.464 7.85 88.404 7.99 88.324 8.17C88.244 8.33 88.184 8.43 88.144 8.47C88.124 8.49 88.084 8.5 88.024 8.5C88.044 8.62 88.084 8.7 88.144 8.74C88.204 8.78 88.304 8.8 88.444 8.8C88.544 8.8 88.664 8.79 88.804 8.77C88.964 8.75 89.154 8.74 89.374 8.74C89.574 8.72 89.744 8.69 89.884 8.65C90.044 8.61 90.194 8.59 90.334 8.59C90.414 8.59 90.534 8.62 90.694 8.68C90.794 8.8 90.844 9.03 90.844 9.37C90.844 9.63 90.804 9.88 90.724 10.12C90.644 10.34 90.544 10.48 90.424 10.54C90.324 10.56 90.104 10.62 89.764 10.72C89.424 10.82 89.054 10.88 88.654 10.9L87.064 11.05L86.554 12.07C86.414 12.31 86.294 12.54 86.194 12.76C86.094 12.98 86.024 13.11 85.984 13.15C85.984 13.25 85.904 13.45 85.744 13.75C85.584 14.05 85.464 14.29 85.384 14.47C85.284 14.75 85.164 15.03 85.024 15.31C84.884 15.57 84.794 15.74 84.754 15.82C84.694 15.82 84.654 15.84 84.634 15.88C84.634 15.9 84.634 15.94 84.634 16L84.694 16.24C84.694 16.34 84.644 16.44 84.544 16.54C84.464 16.58 84.384 16.65 84.304 16.75C84.244 16.85 84.204 16.92 84.184 16.96C84.224 17 84.244 17.05 84.244 17.11C84.244 17.25 84.174 17.43 84.034 17.65C84.034 17.99 83.894 18.5 83.614 19.18C83.634 19.54 83.654 19.77 83.674 19.87C83.694 19.97 83.744 20.01 83.824 19.99H83.974L84.634 19.96C84.774 19.9 84.804 20.05 84.724 20.41C84.664 20.77 84.494 21.32 84.214 22.06C83.914 22.52 83.594 22.92 83.254 23.26C82.934 23.62 82.724 23.8 82.624 23.8Z" fill="#FFD06C"/>
<path d="M91.8056 21.79C91.5656 21.79 91.3756 21.75 91.2356 21.67C91.0956 21.59 90.8956 21.44 90.6356 21.22C90.2356 20.8 89.9256 20.37 89.7056 19.93C89.4856 19.47 89.4056 19.07 89.4656 18.73C89.5256 18.59 89.5456 18.45 89.5256 18.31C89.5256 18.17 89.5256 18.08 89.5256 18.04C89.4456 17.96 89.4056 17.91 89.4056 17.89C89.4056 17.85 89.4256 17.82 89.4656 17.8C89.5056 17.76 89.5356 17.72 89.5556 17.68C89.6756 17.68 89.7156 17.57 89.6756 17.35C89.6356 17.19 89.7056 16.84 89.8856 16.3C90.0656 15.76 90.2956 15.26 90.5756 14.8C90.7956 14.44 91.1156 13.99 91.5356 13.45C91.9756 12.91 92.3656 12.5 92.7056 12.22C93.7056 11.36 94.6056 10.84 95.4056 10.66C95.8056 10.56 96.1956 10.51 96.5756 10.51C97.1556 10.51 97.6056 10.67 97.9256 10.99C98.3656 11.17 98.6856 11.43 98.8856 11.77C99.0856 12.11 99.2156 12.56 99.2756 13.12C99.2956 13.24 99.3056 13.44 99.3056 13.72C99.3056 15.2 98.7456 16.74 97.6256 18.34C97.1656 19 96.7056 19.53 96.2456 19.93C95.7856 20.33 95.2256 20.73 94.5656 21.13C94.2056 21.37 93.8256 21.53 93.4256 21.61C93.0256 21.69 92.4856 21.75 91.8056 21.79ZM94.8656 18.13C95.2456 17.79 95.5156 17.45 95.6756 17.11C95.8556 16.75 96.1056 16.13 96.4256 15.25C96.5456 15.07 96.6056 14.71 96.6056 14.17C96.6056 13.69 96.5356 13.42 96.3956 13.36C96.2956 13.28 96.1756 13.24 96.0356 13.24C95.8556 13.24 95.5656 13.38 95.1656 13.66C94.4656 14.26 93.8756 14.89 93.3956 15.55C92.9356 16.19 92.6156 16.93 92.4356 17.77C92.4156 17.85 92.4056 17.97 92.4056 18.13C92.4056 18.81 92.6456 19.15 93.1256 19.15C93.5856 19.15 94.1656 18.81 94.8656 18.13Z" fill="#FFD06C"/>
</svg>
